<svg width="36" height="36" xmlns="http://www.w3.org/2000/svg" version="1.1">
 <!-- Generator: Sketch 46.2 (44496) - http://www.bohemiancoding.com/sketch -->
 <title>Album</title>
 <desc>Created with Sketch.</desc>

 <g>
  <title>Layer 1</title>
  <g fill-rule="evenodd" fill="none" id="Page-1">
   <g fill="#FF39AA" fill-rule="nonzero" id="Icons-Pattern-One">
    <g id="Album">
     <path fill="#b78620" id="svg_1" d="m4,32l28,0l0,-28l-28,0l0,28zm-4,-32l36,0l0,36l-36,0l0,-36zm18,30c6.62742,0 12,-5.37258 12,-12c0,-6.62742 -5.37258,-12 -12,-12c-6.62742,0 -12,5.37258 -12,12c0,6.62742 5.37258,12 12,12zm0,-4c-4.41828,0 -8,-3.58172 -8,-8c0,-4.41828 3.58172,-8 8,-8c4.41828,0 8,3.58172 8,8c0,4.41828 -3.58172,8 -8,8zm0,-5c1.65685,0 3,-1.34315 3,-3c0,-1.65685 -1.34315,-3 -3,-3c-1.65685,0 -3,1.34315 -3,3c0,1.65685 1.34315,3 3,3z"/>
    </g>
   </g>
  </g>
 </g>
</svg>