<svg width="34" height="36" xmlns="http://www.w3.org/2000/svg" version="1.1">
 <!-- Generator: Sketch 46.2 (44496) - http://www.bohemiancoding.com/sketch -->
 <title>Delete</title>
 <desc>Created with Sketch.</desc>

 <g>
  <title>Layer 1</title>
  <g fill-rule="evenodd" fill="none" id="Page-1">
   <g fill="#FF39AA" id="Icons-Pattern-One">
    <g id="Delete">
     <path fill="#b78620" id="svg_1" d="m14.73333,2.25l-12.46666,0c-1.25185,0 -2.26667,1.00736 -2.26667,2.25c0,1.24264 1.01482,2.25 2.26667,2.25l29.46666,0c1.25185,0 2.26667,-1.00736 2.26667,-2.25c0,-1.24264 -1.01482,-2.25 -2.26667,-2.25l-12.46666,0c0,-1.24264 -1.01482,-2.25 -2.26667,-2.25c-1.25185,0 -2.26667,1.00736 -2.26667,2.25zm-10.19949,6.75l24.93258,0c0.62592,0 1.13333,0.50368 1.13333,1.125c0,0.05331 -0.00382,0.10655 -0.01142,0.15932l-3.42772,23.78431c-0.15972,1.10827 -1.11598,1.93137 -2.24382,1.93137l-15.83332,0c-1.12784,0 -2.0841,-0.8231 -2.24382,-1.93137l-3.42772,-23.78431c-0.08864,-0.61506 0.3418,-1.18499 0.96142,-1.27298c0.05316,-0.00755 0.10679,-0.01134 0.16049,-0.01134zm12.46629,5.60307c-0.60657,0 -1.0983,0.48811 -1.0983,1.09022l0,13.50813c0,0.60212 0.49173,1.09023 1.0983,1.09023c0.60657,0 1.0983,-0.48811 1.0983,-1.09023l0,-13.50813c0,-0.60211 -0.49173,-1.09022 -1.0983,-1.09022zm7.91687,0.1753c-0.59911,-0.09419 -1.1617,0.31155 -1.25659,0.90625l-2.12879,13.34183c-0.09489,0.5947 0.31386,1.15316 0.91296,1.24735c0.59911,0.09419 1.1617,-0.31155 1.25659,-0.90625l2.12879,-13.34183c0.09489,-0.5947 -0.31386,-1.15316 -0.91296,-1.24735zm-15.65201,0c-0.59911,0.09419 -1.00786,0.65265 -0.91297,1.24735l2.12879,13.34183c0.09489,0.5947 0.65749,1.00044 1.25659,0.90625c0.59911,-0.09419 1.00786,-0.65265 0.91297,-1.24735l-2.12879,-13.34183c-0.09489,-0.5947 -0.65749,-1.00044 -1.25659,-0.90625z"/>
    </g>
   </g>
  </g>
 </g>
</svg>