<svg width="36" height="32" xmlns="http://www.w3.org/2000/svg" version="1.1">
 <!-- Generator: Sketch 46.2 (44496) - http://www.bohemiancoding.com/sketch -->
 <title>Download</title>
 <desc>Created with Sketch.</desc>

 <g>
  <title>Layer 1</title>
  <g fill-rule="evenodd" fill="none" id="Page-1">
   <g fill="#FF39AA" fill-rule="nonzero" id="Icons-Pattern-One">
    <g id="Download">
     <path fill="#b78620" id="svg_1" d="m16.34358,15.93228l0,-13.96068c0,-1.08888 0.88272,-1.9716 1.9716,-1.9716c1.08889,0 1.9716,0.88272 1.9716,1.9716l0,13.60306l2.03199,-2.03198c0.76996,-0.76996 2.01831,-0.76996 2.78827,0c0.76996,0.76995 0.76996,2.0183 0,2.78826l-5.57653,5.57654c-0.38498,0.38498 -0.88956,0.57747 -1.39414,0.57747c-0.50458,0 -1.00915,-0.19249 -1.39413,-0.57747l-5.57654,-5.57654c-0.76995,-0.76996 -0.76995,-2.01831 0,-2.78826c0.76996,-0.76996 2.01831,-0.76996 2.78827,0l2.38961,2.3896zm-16.34358,8.27893c0,-0.95339 0.83368,-1.72626 1.86207,-1.72626c1.02839,0 1.86207,0.77287 1.86207,1.72626l0,2.30168c0,0.95339 0.83367,1.72627 1.86207,1.72627l24.82758,0c1.0284,0 1.86207,-0.77288 1.86207,-1.72627l0,-2.30168c0,-0.95339 0.83368,-1.72626 1.86207,-1.72626c1.02839,0 1.86207,0.77287 1.86207,1.72626l0,2.30168c0,2.86017 -2.50103,5.17879 -5.58621,5.17879l-24.82758,0c-3.08518,0 -5.58621,-2.31862 -5.58621,-5.17879l0,-2.30168z"/>
    </g>
   </g>
  </g>
 </g>
</svg>