<svg width="33" height="36" xmlns="http://www.w3.org/2000/svg" version="1.1">
 <!-- Generator: Sketch 46.2 (44496) - http://www.bohemiancoding.com/sketch -->
 <title>Library</title>
 <desc>Created with Sketch.</desc>

 <g>
  <title>Layer 1</title>
  <g fill-rule="evenodd" fill="none" id="Page-1">
   <g fill="#FF39AA" id="Icons-Pattern-One">
    <g id="Library">
     <path fill="#b78620" id="svg_1" d="m2.43518,0l0,0c1.34491,0 2.43518,1.09027 2.43518,2.43518l0,31.12964l0,0c0,1.34491 -1.09027,2.43518 -2.43518,2.43518l0,0l0,0c-1.34491,0 -2.43518,-1.09027 -2.43518,-2.43518l0,-31.12964l0,0c0,-1.34491 1.09027,-2.43518 2.43518,-2.43518l0,0zm18.89797,0.61334c1.3396,-0.35086 2.71655,0.4262 3.07549,1.73562l8.23244,30.03151c0.35895,1.30942 -0.43603,2.65534 -1.77564,3.00619c-1.3396,0.35086 -2.71655,-0.4262 -3.07549,-1.73562l-8.23244,-30.03151c-0.35895,-1.30942 0.43603,-2.65534 1.77564,-3.00619zm-9.19599,-0.61334l0,0c1.34492,0 2.43518,1.09027 2.43518,2.43518l0,31.12964l0,0c0,1.34491 -1.09026,2.43518 -2.43518,2.43518c-1.34491,0 -2.43517,-1.09027 -2.43517,-2.43518l0,-31.12964l0,0c0,-1.34491 1.09026,-2.43518 2.43517,-2.43518l0,0z"/>
    </g>
   </g>
  </g>
 </g>
</svg>