<svg width="36" height="22" xmlns="http://www.w3.org/2000/svg" version="1.1">
 <!-- Generator: Sketch 46.2 (44496) - http://www.bohemiancoding.com/sketch -->
 <title>Next</title>
 <desc>Created with Sketch.</desc>

 <g>
  <title>Layer 1</title>
  <g fill-rule="evenodd" fill="none" id="Page-1">
   <g fill="#FF39AA" id="Icons-Pattern-One">
    <g id="Next">
     <path fill="#b78620" id="svg_1" d="m16.80423,1.18195c-0.20889,-0.11916 -0.44638,-0.18195 -0.68821,-0.18195c-0.75443,0 -1.36602,0.5982 -1.36602,1.33611l0,6.65864l-13.69577,-7.8128c-0.20889,-0.11916 -0.44638,-0.18195 -0.68821,-0.18195c-0.75443,0 -1.36602,0.5982 -1.36602,1.33611l0,18.70256c0,0.23653 0.06419,0.46882 0.18603,0.67314c0.38008,0.63742 1.2165,0.85278 1.8682,0.48102l13.69577,-7.81279l0,6.65863c0,0.23653 0.06419,0.46882 0.18603,0.67314c0.38008,0.63742 1.2165,0.85278 1.8682,0.48102l13.69577,-7.81279l0,5.74496c0,1.24264 1.00736,2.25 2.25,2.25c1.24264,0 2.25,-1.00736 2.25,-2.25l0,-16.875c0,-1.24264 -1.00736,-2.25 -2.25,-2.25c-1.24264,0 -2.25,1.00736 -2.25,2.25l0,5.74475l-13.69577,-7.8128z"/>
    </g>
   </g>
  </g>
 </g>
</svg>