<svg width="31" height="36" xmlns="http://www.w3.org/2000/svg" version="1.1">
 <!-- Generator: Sketch 46.2 (44496) - http://www.bohemiancoding.com/sketch -->
 <title>Notification</title>
 <desc>Created with Sketch.</desc>

 <g>
  <title>Layer 1</title>
  <g fill-rule="evenodd" fill="none" id="Page-1">
   <g fill="#FF39AA" id="Icons-Pattern-One">
    <g id="Notification">
     <path fill="#b78620" id="svg_1" d="m17.31324,2.25004c5.12015,0.9476 8.9739,5.07482 8.9739,10.02269l0,10.22727l-22.43474,0l0,-10.22727c0,-4.94787 3.85375,-9.07509 8.97389,-10.02269l0,-0.20459c0,-1.12967 1.00444,-2.04545 2.24348,-2.04545c1.23903,0 2.24347,0.91578 2.24347,2.04545l0,0.20459zm-2.24347,33.74996c-2.47808,0 -4.48695,-2.01472 -4.48695,-4.5l8.9739,0c0,2.48528 -2.00888,4.5 -4.48695,4.5zm-14.93835,-7.5182l3.06388,-3.07279c0.42073,-0.42196 0.6571,-0.99425 0.6571,-1.59099l0,-1.31802l22.43474,0l0,1.31802c0,0.59674 0.23636,1.16903 0.6571,1.59099l3.06388,3.07279c0.17522,0.17574 0.17522,0.46066 0,0.6364c-0.08415,0.08439 -0.19828,0.1318 -0.31728,0.1318l-29.24215,0c-0.2478,0 -0.44869,-0.20147 -0.44869,-0.45c0,-0.11935 0.04727,-0.23381 0.13142,-0.3182z"/>
    </g>
   </g>
  </g>
 </g>
</svg>