<svg width="21" height="36" xmlns="http://www.w3.org/2000/svg" version="1.1">
 <!-- Generator: Sketch 46.2 (44496) - http://www.bohemiancoding.com/sketch -->
 <title>Pause</title>
 <desc>Created with Sketch.</desc>

 <g>
  <title>Layer 1</title>
  <g fill-rule="evenodd" fill="none" id="Page-1">
   <g fill="#FF39AA" id="Icons-Pattern-One">
    <g id="Pause">
     <path fill="#b78620" id="svg_1" d="m3.75,0c2.07107,0 3.75,1.67893 3.75,3.75l0,28.5c0,2.07107 -1.67893,3.75 -3.75,3.75c-2.07107,0 -3.75,-1.67893 -3.75,-3.75l0,-28.5c0,-2.07107 1.67893,-3.75 3.75,-3.75zm13.42857,0c2.07107,0 3.75,1.67893 3.75,3.75l0,28.5c0,2.07107 -1.67893,3.75 -3.75,3.75c-2.07107,0 -3.75,-1.67893 -3.75,-3.75l0,-28.5c0,-2.07107 1.67893,-3.75 3.75,-3.75z"/>
    </g>
   </g>
  </g>
 </g>
</svg>