<svg width="36" height="24" xmlns="http://www.w3.org/2000/svg" version="1.1">
 <!-- Generator: Sketch 46.2 (44496) - http://www.bohemiancoding.com/sketch -->
 <title>Podcast</title>
 <desc>Created with Sketch.</desc>

 <g>
  <title>Layer 1</title>
  <g fill-rule="evenodd" fill="none" id="Page-1">
   <g fill="#FF39AA" fill-rule="nonzero" id="Icons-Pattern-One">
    <g id="Podcast">
     <path fill="#b78620" id="svg_1" d="m4.63755,0.57969c0.77598,-0.77597 2.0376,-0.77246 2.81792,0.00785c0.78031,0.78031 0.78382,2.04193 0.00784,2.81791c-4.65587,4.65588 -4.6348,12.22561 0.04707,16.90748c0.78031,0.78031 0.78383,2.04194 0.00785,2.81792c-0.77598,0.77597 -2.0376,0.77246 -2.81792,-0.00785c-6.24249,-6.24249 -6.27059,-16.33547 -0.06276,-22.54331zm5.46145,3.98446c0.77598,-0.77598 2.0376,-0.77246 2.81791,0.00785c0.78031,0.78031 0.78383,2.04193 0.00785,2.81791c-2.32794,2.32794 -2.3174,6.11281 0.02353,8.45374c0.78031,0.78031 0.78383,2.04194 0.00785,2.81791c-0.77598,0.77598 -2.0376,0.77247 -2.81792,-0.00784c-3.90155,-3.90156 -3.91912,-10.20967 -0.03922,-14.08957zm21.26345,18.5667c-0.77598,0.77597 -2.0376,0.77246 -2.81792,-0.00785c-0.78031,-0.78031 -0.78382,-2.04193 -0.00784,-2.81791c4.65587,-4.65588 4.6348,-12.22561 -0.04707,-16.90748c-0.78031,-0.78031 -0.78383,-2.04194 -0.00785,-2.81792c0.77598,-0.77597 2.0376,-0.77246 2.81792,0.00785c6.24249,6.24249 6.27059,16.33547 0.06276,22.54331zm-5.49069,-4.46929c-0.77598,0.77598 -2.03761,0.77247 -2.81792,-0.00784c-0.78031,-0.78031 -0.78382,-2.04194 -0.00784,-2.81791c2.32793,-2.32794 2.3174,-6.11281 -0.02354,-8.45374c-0.78031,-0.78032 -0.78382,-2.04194 -0.00784,-2.81792c0.77598,-0.77598 2.0376,-0.77246 2.81791,0.00785c3.90156,3.90156 3.91912,10.20967 0.03923,14.08956zm-7.87176,-2.70965c-2.1948,0 -3.97404,-1.78918 -3.97404,-3.99623c0,-2.20705 1.77924,-3.99623 3.97404,-3.99623c2.1948,0 3.97404,1.78918 3.97404,3.99623c0,2.20705 -1.77924,3.99623 -3.97404,3.99623z"/>
    </g>
   </g>
  </g>
 </g>
</svg>