<svg width="37" height="22" xmlns="http://www.w3.org/2000/svg" version="1.1">
 <!-- Generator: Sketch 46.2 (44496) - http://www.bohemiancoding.com/sketch -->
 <title>Previous</title>
 <desc>Created with Sketch.</desc>

 <g>
  <title>Layer 1</title>
  <g fill-rule="evenodd" fill="none" id="Page-1">
   <g fill="#FF39AA" id="Icons-Pattern-One">
    <g id="Previous">
     <path fill="#b78620" id="svg_1" d="m4.505,8.00363l13.71099,-7.82148c0.20912,-0.11929 0.44688,-0.18215 0.68897,-0.18215c0.75527,0 1.36754,0.59886 1.36754,1.33759l0,6.66604l13.71099,-7.82148c0.20912,-0.11929 0.44688,-0.18215 0.68897,-0.18215c0.75527,0 1.36754,0.59886 1.36754,1.33759l0,18.72335c0,0.23679 -0.06427,0.46933 -0.18623,0.67388c-0.38051,0.63813 -1.21786,0.85373 -1.87028,0.48156l-13.71099,-7.82148l0,6.66604c0,0.23679 -0.06427,0.46933 -0.18623,0.67388c-0.38051,0.63813 -1.21786,0.85373 -1.87028,0.48156l-13.71099,-7.82148l0,5.75135c0,1.24402 -1.00848,2.2525 -2.2525,2.2525c-1.24402,0 -2.2525,-1.00848 -2.2525,-2.2525l0,-16.89375c0,-1.24402 1.00848,-2.2525 2.2525,-2.2525c1.24402,0 2.2525,1.00848 2.2525,2.2525l0,5.75113l0,0z"/>
    </g>
   </g>
  </g>
 </g>
</svg>