<svg width="36" height="36" xmlns="http://www.w3.org/2000/svg" version="1.1">
 <!-- Generator: Sketch 46.2 (44496) - http://www.bohemiancoding.com/sketch -->
 <title>Queue</title>
 <desc>Created with Sketch.</desc>

 <g>
  <title>Layer 1</title>
  <g fill-rule="evenodd" fill="none" id="Page-1">
   <g fill="#FF39AA" id="Icons-Pattern-One">
    <g id="Queue">
     <path fill="#b78620" id="svg_1" d="m18.19462,7.57331l15.68167,0c1.10457,0 2,0.89543 2,2c0,1.10457 -0.89543,2 -2,2l-17.64811,0l2.04482,-1.19259c0.23827,-0.13897 0.43653,-0.33723 0.5755,-0.57551c0.44478,-0.76262 0.18712,-1.74141 -0.5755,-2.18619l-0.07838,-0.04571zm-14.31833,26c0,-1.10457 0.89543,-2 2,-2l28,0c1.10457,0 2,0.89543 2,2c0,1.10457 -0.89543,2 -2,2l-28,0c-1.10457,0 -2,-0.89543 -2,-2zm0,-12c0,-1.10457 0.89543,-2 2,-2l28,0c1.10457,0 2,0.89543 2,2c0,1.10457 -0.89543,2 -2,2l-28,0c-1.10457,0 -2,-0.89543 -2,-2zm11.31782,-11.60148l-13.50212,7.87476c-0.53677,0.31307 -1.22571,0.13171 -1.53877,-0.40507c-0.10035,-0.17206 -0.15322,-0.36767 -0.15322,-0.56685l0,-15.74952c0,-0.62141 0.50374,-1.12515 1.12515,-1.12515c0.19918,0 0.39479,0.05287 0.56684,0.15322l13.50212,7.87477c0.53678,0.31306 0.71813,1.00199 0.40507,1.53877c-0.09781,0.16771 -0.23736,0.30726 -0.40507,0.40507z"/>
    </g>
   </g>
  </g>
 </g>
</svg>