<svg width="37" height="31" xmlns="http://www.w3.org/2000/svg" version="1.1">
 <!-- Generator: Sketch 46.2 (44496) - http://www.bohemiancoding.com/sketch -->
 <title>Radio</title>
 <desc>Created with Sketch.</desc>

 <g>
  <title>Layer 1</title>
  <g fill-rule="evenodd" fill="none" id="Page-1">
   <g fill="#FF39AA" fill-rule="nonzero" id="Icons-Pattern-One">
    <g id="Radio">
     <path fill="#b78620" id="svg_1" d="m4.64193,0.58024c0.77671,-0.77671 2.03953,-0.77319 2.82058,0.00785c0.78105,0.78105 0.78456,2.04387 0.00785,2.82058c-4.66027,4.66027 -4.63918,12.23715 0.04712,16.92345c0.78104,0.78104 0.78456,2.04386 0.00785,2.82057c-0.77671,0.77671 -2.03953,0.7732 -2.82058,-0.00785c-6.24839,-6.24839 -6.27651,-16.3509 -0.06282,-22.5646zm5.46661,3.98822c0.77671,-0.77671 2.03952,-0.77319 2.82057,0.00786c0.78105,0.78104 0.78456,2.04386 0.00785,2.82057c-2.33013,2.33013 -2.31959,6.11858 0.02356,8.46172c0.78105,0.78105 0.78456,2.04387 0.00785,2.82058c-0.77671,0.77671 -2.03952,0.77319 -2.82057,-0.00785c-3.90524,-3.90525 -3.92282,-10.21932 -0.03926,-14.10288zm21.28353,18.58423c-0.77672,0.77671 -2.03953,0.7732 -2.82058,-0.00785c-0.78105,-0.78105 -0.78456,-2.04386 -0.00785,-2.82058c4.66027,-4.66027 4.63917,-12.23715 -0.04712,-16.92344c-0.78105,-0.78105 -0.78456,-2.04387 -0.00785,-2.82058c0.77671,-0.77671 2.03953,-0.77319 2.82057,0.00785c6.24839,6.24839 6.27652,16.35091 0.06283,22.5646zm-5.49588,-4.4735c-0.77671,0.77671 -2.03953,0.77319 -2.82058,-0.00785c-0.78104,-0.78105 -0.78456,-2.04387 -0.00785,-2.82058c2.33014,-2.33013 2.31959,-6.11858 -0.02356,-8.46172c-0.78104,-0.78105 -0.78456,-2.04387 -0.00785,-2.82058c0.77671,-0.77671 2.03953,-0.77319 2.82058,0.00786c3.90524,3.90524 3.92282,10.21931 0.03926,14.10287zm-7.87919,-2.71222c-2.19687,0 -3.97779,-1.79086 -3.97779,-4c0,-2.20914 1.78092,-4 3.97779,-4c2.19687,0 3.97779,1.79086 3.97779,4c0,2.20914 -1.78092,4 -3.97779,4zm-1.58897,2l3.26695,0c0.24751,0 0.45777,0.18109 0.49447,0.42587l1.79908,12c0.04095,0.27309 -0.14725,0.52766 -0.42034,0.5686c-0.02454,0.00368 -0.04932,0.00553 -0.07413,0.00553l-6.95412,0c-0.27614,0 -0.5,-0.22386 -0.5,-0.5c0,-0.02602 0.00203,-0.05201 0.00608,-0.07771l1.88808,-12c0.03826,-0.24315 0.24779,-0.42229 0.49393,-0.42229z"/>
    </g>
   </g>
  </g>
 </g>
</svg>