<svg width="36" height="33" xmlns="http://www.w3.org/2000/svg" version="1.1">
 <!-- Generator: Sketch 46.2 (44496) - http://www.bohemiancoding.com/sketch -->
 <title>Repeat One</title>
 <desc>Created with Sketch.</desc>

 <g>
  <title>Layer 1</title>
  <g fill-rule="evenodd" fill="none" id="Page-1">
   <g fill="#FF39AA" fill-rule="nonzero" id="Icons-Pattern-One">
    <g id="Repeat-One">
     <path fill="#b78620" id="svg_1" d="m8.64,25.9711l10.56306,0c8.95008,0 12.95694,-3.22422 12.95694,-9.9711l3.84,0c0,9.21458 -5.9111,13.9711 -16.79694,13.9711l-10.56306,0l0,3.0289l-8.64,-5l8.64,-5l0,2.9711zm9.49984,-15.9422l9.22016,0l0,2.9711l8.64,-5l-8.64,-5l0,3.0289l-8.97964,0c0.07871,0.4787 0.11964,0.97012 0.11964,1.4711c0,0.87801 -0.12573,1.72665 -0.36016,2.5289zm-13.34579,5.14423c-0.64279,1.33962 -0.95405,2.94642 -0.95405,4.82687l-3.84,0c0,-3.04729 0.64646,-5.60702 1.90552,-7.66841c0.73442,1.15199 1.72375,2.12566 2.88853,2.84154l0,0zm4.70595,-0.17313c-4.14214,0 -7.5,-3.35786 -7.5,-7.5c0,-4.14214 3.35786,-7.5 7.5,-7.5c4.14214,0 7.5,3.35786 7.5,7.5c0,4.14214 -3.35786,7.5 -7.5,7.5zm0.02197,-4.29273c0,0.29091 0.06727,0.51091 0.20182,0.66c0.13454,0.14909 0.31272,0.22364 0.53454,0.22364c0.49819,0 0.74727,-0.36545 0.74727,-1.09636l0,-6.24546c0,-0.26182 -0.05818,-0.46727 -0.17454,-0.61636c-0.11637,-0.14909 -0.27091,-0.22364 -0.46364,-0.22364c-0.17091,0 -0.28727,0.03273 -0.34909,0.09818c-0.06182,0.06546 -0.19454,0.24 -0.39818,0.52364c-0.20364,0.28364 -0.43727,0.54 -0.70091,0.76909c-0.26364,0.22909 -0.61545,0.44727 -1.05545,0.65455c-0.29455,0.13818 -0.5,0.2509 -0.61637,0.33818c-0.11636,0.08727 -0.17454,0.22363 -0.17454,0.40909c0,0.16 0.05909,0.30091 0.17727,0.42273c0.11818,0.12181 0.25363,0.18272 0.40636,0.18272c0.32,0 0.94182,-0.35454 1.86546,-1.06363l0,4.96363z"/>
    </g>
   </g>
  </g>
 </g>
</svg>