<svg width="36" height="36" xmlns="http://www.w3.org/2000/svg" version="1.1">
 <!-- Generator: Sketch 46.2 (44496) - http://www.bohemiancoding.com/sketch -->
 <title>Search</title>
 <desc>Created with Sketch.</desc>

 <g>
  <title>Layer 1</title>
  <g fill-rule="evenodd" fill="none" id="Page-1">
   <g fill="#FF39AA" fill-rule="nonzero" id="Icons-Pattern-One">
    <g id="Search">
     <path fill="#b78620" id="svg_1" d="m35.40158,32.50448c0.79789,0.79965 0.79789,2.09614 0,2.89578c-0.7979,0.79965 -2.09155,0.79965 -2.88944,0l-9.44316,-9.46388c-2.42133,1.90569 -5.46335,3.0404 -8.76698,3.0404c-7.89878,0 -14.302,-6.48667 -14.302,-14.48839c0,-8.00172 6.40322,-14.48839 14.302,-14.48839c7.89877,0 14.302,6.48667 14.302,14.48839c0,3.17009 -1.00503,6.10239 -2.7099,8.48774l9.50748,9.52835zm-21.09958,-7.66724c5.64198,0 10.21571,-4.63334 10.21571,-10.34885c0,-5.71551 -4.57373,-10.34885 -10.21571,-10.34885c-5.64198,0 -10.21571,4.63334 -10.21571,10.34885c0,5.71551 4.57373,10.34885 10.21571,10.34885z"/>
    </g>
   </g>
  </g>
 </g>
</svg>