<svg width="36" height="26" xmlns="http://www.w3.org/2000/svg" version="1.1">
 <!-- Generator: Sketch 46.2 (44496) - http://www.bohemiancoding.com/sketch -->
 <title>Shuffle</title>
 <desc>Created with Sketch.</desc>

 <g>
  <title>Layer 1</title>
  <g fill-rule="evenodd" fill="none" id="Page-1">
   <g fill="#FF39AA" fill-rule="nonzero" id="Icons-Pattern-One">
    <g id="Shuffle">
     <path fill="#b78620" id="svg_1" d="m27.81818,2.90769l0,-2.90769l8.18182,4.84615l-8.18182,4.84616l0,-2.90769l-1.54011,0c-4.5924,0 -8.34277,2.41583 -11.38072,7.38341c-3.10636,5.37226 -7.59185,8.12428 -13.26099,8.12428l-1.63636,0l0,-3.87693l1.63636,0c4.59824,0 8.06998,-2.13003 10.5859,-6.48022c3.66062,-5.98689 8.38084,-9.02747 14.05581,-9.02747l1.54011,0zm0,15.50769l0,-2.90769l8.18182,4.84616l-8.18182,4.84615l0,-2.90769l-1.54011,0c-4.5081,0 -8.41371,-1.91874 -11.66427,-5.70897c0.09576,-0.15659 0.19028,-0.31554 0.28355,-0.47685c0.57245,-0.93606 1.17019,-1.78151 1.7941,-2.53726c2.68713,3.25498 5.85958,4.84615 9.58662,4.84615l1.54011,0l0,0zm-14.6269,-9.89948c-0.33082,0.47172 -0.65385,0.96534 -0.96902,1.4808c-0.33817,0.58473 -0.69362,1.12935 -1.06675,1.63407c-2.40283,-3.25025 -5.53898,-4.84615 -9.51915,-4.84615l-1.63636,0l0,-3.87693l1.63636,0c4.70368,0 8.59254,1.89449 11.55492,5.60821l0,0z"/>
    </g>
   </g>
  </g>
 </g>
</svg>